<svg width="680" height="600" viewBox="0 0 680 600" xmlns="http://www.w3.org/2000/svg">
<style>.ink{stroke:#1a1209;fill:none;stroke-linecap:round;stroke-linejoin:round;}.ink-fill{fill:#1a1209;stroke:#1a1209;stroke-width:1;}.ink-text{font-family:"Georgia",serif;fill:#1a1209;}.ink-title{font-family:"Georgia",serif;fill:#1a1209;font-weight:bold;}</style>
<text class="ink-title" x="311" y="40" font-size="26" text-anchor="middle">3 5 R &#8594;</text>
<g transform="translate(0,40)">

<path class="ink" stroke-width="1.7" d="M158 82 Q230 80 308 81 Q390 80 464 83"/>
<path class="ink" stroke-width="1.7" d="M159 167 Q240 165 308 167 Q390 166 463 168"/>
<path class="ink" stroke-width="1.6" d="M160 252 Q237 254 309 252 Q388 253 463 251"/>
<path class="ink" stroke-width="1.8" d="M158 337 Q239 336 308 338 Q389 336 464 338"/>
<path class="ink" stroke-width="1.7" d="M159 422 Q238 421 309 423 Q387 421 463 424"/>
<path class="ink" stroke-width="1.6" d="M160 507 Q240 509 308 507 Q388 508 464 506"/>
<path class="ink" stroke-width="1.7" d="M160 82 C161 200 159 350 160 507"/>
<path class="ink" stroke-width="1.5" d="M220 82 C221 195 219 360 221 507"/>
<path class="ink" stroke-width="1.8" d="M280 82 C282 205 279 345 280 507"/>
<path class="ink" stroke-width="1.6" d="M340 82 C339 198 341 355 340 507"/>
<path class="ink" stroke-width="1.5" d="M400 83 C401 202 399 348 401 507"/>
<path class="ink" stroke-width="1.7" d="M460 83 C462 197 461 352 460 507"/>
<text class="ink-text" x="100" y="216" font-size="24" font-style="italic" text-anchor="end">7/19</text>
<path class="ink-fill" d="M160 363 C148 364 140 372 141 382 C141 393 150 400 161 399 C172 399 180 391 179 380 C178 370 171 362 160 363 Z"/><path class="ink-fill" d="M220 193 C208 194 200 202 201 212 C201 222 210 230 221 229 C232 228 240 220 239 209 C238 199 231 192 220 193 Z"/><path class="ink-fill" d="M280 193 C268 194 260 202 261 212 C261 222 270 230 281 229 C292 228 300 220 299 209 C298 199 291 192 280 193 Z"/>
<text class="ink-text" x="160" y="543" font-size="22" font-style="italic" text-anchor="middle">3</text><text class="ink-text" x="220" y="543" font-size="22" font-style="italic" text-anchor="middle">5</text><text class="ink-text" x="280" y="543" font-size="22" font-style="italic" text-anchor="middle">R</text>
</g>
</svg>
