<svg width="680" height="560" viewBox="0 0 680 560" role="img" xmlns="http://www.w3.org/2000/svg">
<title>Minor Position 3 - Guitar chord diagram</title>
<style>
  .ink { stroke: #1a1209; fill: none; stroke-linecap: round; stroke-linejoin: round; }
  .ink-fill { fill: #1a1209; stroke: #1a1209; stroke-width: 1; stroke-linecap: round; stroke-linejoin: round; }
  .ink-fill-red { fill: #b91c1c; stroke: #b91c1c; stroke-width: 1; stroke-linecap: round; stroke-linejoin: round; }
  .ink-text { font-family: 'Georgia', serif; fill: #1a1209; }
</style>
<path class="ink" stroke-width="1.7" d="M158 82 Q230 80 308 81 Q390 80 464 83"/>
<path class="ink" stroke-width="1.7" d="M159 167 Q240 165 308 167 Q390 166 463 168"/>
<path class="ink" stroke-width="1.6" d="M160 252 Q237 254 309 252 Q388 253 463 251"/>
<path class="ink" stroke-width="1.8" d="M158 337 Q239 336 308 338 Q389 336 464 338"/>
<path class="ink" stroke-width="1.7" d="M159 422 Q238 421 309 423 Q387 421 463 424"/>
<path class="ink" stroke-width="1.6" d="M160 507 Q240 509 308 507 Q388 508 464 506"/>
<path class="ink" stroke-width="1.7" d="M160 82 C161 200 159 350 160 507"/>
<path class="ink" stroke-width="1.5" d="M220 82 C221 195 219 360 221 507"/>
<path class="ink" stroke-width="1.8" d="M280 82 C282 205 279 345 280 507"/>
<path class="ink" stroke-width="1.6" d="M340 82 C339 198 341 355 340 507"/>
<path class="ink" stroke-width="1.5" d="M400 83 C401 202 399 348 401 507"/>
<path class="ink" stroke-width="1.7" d="M460 83 C462 197 461 352 460 507"/>
<text class="ink-text" x="100" y="132" font-size="28" font-style="italic" text-anchor="end">7/19</text>
<path class="ink-fill" d="M160 193 C148 194 140 202 141 212 C141 222 150 230 161 229 C172 228 180 220 179 209 C178 199 171 192 160 193 Z"/>
<path class="ink-fill-red" d="M280 109 C269 108 261 117 262 127 C262 137 270 145 281 144 C292 143 299 135 298 125 C297 115 291 109 280 109 Z"/>
<path class="ink-fill" d="M340 278 C329 277 321 286 322 296 C322 307 331 315 342 314 C353 313 360 305 359 294 C358 284 351 277 340 278 Z"/>
<path class="ink-fill-red" d="M401 363 C389 362 381 371 382 381 C382 392 391 400 402 399 C413 398 421 390 420 379 C419 369 412 363 401 363 Z"/>
</svg>
